<mxfile host="app.diagrams.net" modified="2022-11-15T03:29:15.952Z" agent="5.0 (Windows NT 10.0; Win64; x64) AppleWebKit/537.36 (KHTML, like Gecko) Chrome/107.0.0.0 Safari/537.36 Edg/107.0.1418.35" etag="FG5qScwb9ZL79SgLFKgu" version="20.5.1" type="github">
  <diagram id="JqOF_PFxa-SGxPOGJDAV" name="第 1 页">
    <mxGraphModel dx="1375" dy="762" grid="1" gridSize="10" guides="1" tooltips="1" connect="1" arrows="1" fold="1" page="1" pageScale="1" pageWidth="1654" pageHeight="2336" math="0" shadow="0">
      <root>
        <mxCell id="0" />
        <mxCell id="1" parent="0" />
        <mxCell id="ZgApeL-rhUTh3z4IGhjK-3" style="edgeStyle=orthogonalEdgeStyle;rounded=0;orthogonalLoop=1;jettySize=auto;html=1;exitX=0;exitY=0.25;exitDx=0;exitDy=0;entryX=1;entryY=0.25;entryDx=0;entryDy=0;fontSize=14;" edge="1" parent="1" source="ZgApeL-rhUTh3z4IGhjK-1" target="ZgApeL-rhUTh3z4IGhjK-2">
          <mxGeometry relative="1" as="geometry" />
        </mxCell>
        <mxCell id="ZgApeL-rhUTh3z4IGhjK-7" value="调用接口" style="edgeLabel;html=1;align=center;verticalAlign=middle;resizable=0;points=[];fontSize=14;" vertex="1" connectable="0" parent="ZgApeL-rhUTh3z4IGhjK-3">
          <mxGeometry x="0.2615" y="2" relative="1" as="geometry">
            <mxPoint x="5" y="-2" as="offset" />
          </mxGeometry>
        </mxCell>
        <mxCell id="ZgApeL-rhUTh3z4IGhjK-10" style="edgeStyle=orthogonalEdgeStyle;rounded=0;orthogonalLoop=1;jettySize=auto;html=1;exitX=1;exitY=0.25;exitDx=0;exitDy=0;entryX=0;entryY=0.25;entryDx=0;entryDy=0;fontSize=14;" edge="1" parent="1" source="ZgApeL-rhUTh3z4IGhjK-1" target="ZgApeL-rhUTh3z4IGhjK-9">
          <mxGeometry relative="1" as="geometry" />
        </mxCell>
        <mxCell id="ZgApeL-rhUTh3z4IGhjK-11" value="接口返回数据入库" style="edgeLabel;html=1;align=center;verticalAlign=middle;resizable=0;points=[];fontSize=14;" vertex="1" connectable="0" parent="ZgApeL-rhUTh3z4IGhjK-10">
          <mxGeometry x="-0.1667" y="3" relative="1" as="geometry">
            <mxPoint x="9" y="1" as="offset" />
          </mxGeometry>
        </mxCell>
        <mxCell id="ZgApeL-rhUTh3z4IGhjK-12" style="edgeStyle=orthogonalEdgeStyle;rounded=0;orthogonalLoop=1;jettySize=auto;html=1;exitX=1;exitY=0.75;exitDx=0;exitDy=0;entryX=0;entryY=0.75;entryDx=0;entryDy=0;fontSize=14;" edge="1" parent="1" source="ZgApeL-rhUTh3z4IGhjK-1" target="ZgApeL-rhUTh3z4IGhjK-9">
          <mxGeometry relative="1" as="geometry" />
        </mxCell>
        <mxCell id="ZgApeL-rhUTh3z4IGhjK-13" value="更新数据入通知表" style="edgeLabel;html=1;align=center;verticalAlign=middle;resizable=0;points=[];fontSize=14;" vertex="1" connectable="0" parent="ZgApeL-rhUTh3z4IGhjK-12">
          <mxGeometry x="0.1529" y="-2" relative="1" as="geometry">
            <mxPoint x="-19" y="-2" as="offset" />
          </mxGeometry>
        </mxCell>
        <mxCell id="ZgApeL-rhUTh3z4IGhjK-1" value="214数据同步" style="rounded=0;whiteSpace=wrap;html=1;shadow=1;" vertex="1" parent="1">
          <mxGeometry x="520" y="240" width="120" height="60" as="geometry" />
        </mxCell>
        <mxCell id="ZgApeL-rhUTh3z4IGhjK-4" style="edgeStyle=orthogonalEdgeStyle;rounded=0;orthogonalLoop=1;jettySize=auto;html=1;exitX=1;exitY=0.75;exitDx=0;exitDy=0;entryX=0;entryY=0.75;entryDx=0;entryDy=0;fontSize=14;" edge="1" parent="1" source="ZgApeL-rhUTh3z4IGhjK-2" target="ZgApeL-rhUTh3z4IGhjK-1">
          <mxGeometry relative="1" as="geometry" />
        </mxCell>
        <mxCell id="ZgApeL-rhUTh3z4IGhjK-8" value="全量同步数据" style="edgeLabel;html=1;align=center;verticalAlign=middle;resizable=0;points=[];fontSize=14;" vertex="1" connectable="0" parent="ZgApeL-rhUTh3z4IGhjK-4">
          <mxGeometry x="0.2308" relative="1" as="geometry">
            <mxPoint x="-15" as="offset" />
          </mxGeometry>
        </mxCell>
        <mxCell id="ZgApeL-rhUTh3z4IGhjK-2" value="数据中心" style="rounded=0;whiteSpace=wrap;html=1;shadow=1;" vertex="1" parent="1">
          <mxGeometry x="270" y="240" width="120" height="60" as="geometry" />
        </mxCell>
        <mxCell id="ZgApeL-rhUTh3z4IGhjK-14" style="edgeStyle=orthogonalEdgeStyle;rounded=0;orthogonalLoop=1;jettySize=auto;html=1;exitX=0.25;exitY=1;exitDx=0;exitDy=0;fontSize=14;" edge="1" parent="1" source="ZgApeL-rhUTh3z4IGhjK-9" target="ZgApeL-rhUTh3z4IGhjK-15">
          <mxGeometry relative="1" as="geometry">
            <mxPoint x="840" y="360" as="targetPoint" />
          </mxGeometry>
        </mxCell>
        <mxCell id="ZgApeL-rhUTh3z4IGhjK-17" style="edgeStyle=orthogonalEdgeStyle;rounded=0;orthogonalLoop=1;jettySize=auto;html=1;exitX=0.75;exitY=1;exitDx=0;exitDy=0;fontSize=14;" edge="1" parent="1" source="ZgApeL-rhUTh3z4IGhjK-9" target="ZgApeL-rhUTh3z4IGhjK-18">
          <mxGeometry relative="1" as="geometry">
            <mxPoint x="900" y="320" as="targetPoint" />
          </mxGeometry>
        </mxCell>
        <mxCell id="ZgApeL-rhUTh3z4IGhjK-9" value="10.1.31.75" style="rounded=0;whiteSpace=wrap;html=1;shadow=1;fontSize=14;" vertex="1" parent="1">
          <mxGeometry x="810" y="240" width="120" height="60" as="geometry" />
        </mxCell>
        <mxCell id="ZgApeL-rhUTh3z4IGhjK-23" style="edgeStyle=orthogonalEdgeStyle;rounded=0;orthogonalLoop=1;jettySize=auto;html=1;exitX=0.5;exitY=1;exitDx=0;exitDy=0;entryX=0.358;entryY=0;entryDx=0;entryDy=0;entryPerimeter=0;fontSize=14;" edge="1" parent="1" source="ZgApeL-rhUTh3z4IGhjK-15" target="ZgApeL-rhUTh3z4IGhjK-20">
          <mxGeometry relative="1" as="geometry" />
        </mxCell>
        <mxCell id="ZgApeL-rhUTh3z4IGhjK-24" value="查询主键&lt;br&gt;更新范围&lt;br&gt;数据入库" style="edgeLabel;html=1;align=center;verticalAlign=middle;resizable=0;points=[];fontSize=14;" vertex="1" connectable="0" parent="ZgApeL-rhUTh3z4IGhjK-23">
          <mxGeometry x="-0.2486" y="2" relative="1" as="geometry">
            <mxPoint as="offset" />
          </mxGeometry>
        </mxCell>
        <mxCell id="ZgApeL-rhUTh3z4IGhjK-15" value="同步数据表" style="rounded=0;whiteSpace=wrap;html=1;shadow=1;fontSize=14;" vertex="1" parent="1">
          <mxGeometry x="730" y="340" width="120" height="60" as="geometry" />
        </mxCell>
        <mxCell id="ZgApeL-rhUTh3z4IGhjK-18" value="事件通知表" style="rounded=0;whiteSpace=wrap;html=1;shadow=1;fontSize=14;" vertex="1" parent="1">
          <mxGeometry x="900" y="340" width="120" height="60" as="geometry" />
        </mxCell>
        <mxCell id="ZgApeL-rhUTh3z4IGhjK-21" style="edgeStyle=orthogonalEdgeStyle;rounded=0;orthogonalLoop=1;jettySize=auto;html=1;exitX=0.75;exitY=0;exitDx=0;exitDy=0;entryX=0.5;entryY=1;entryDx=0;entryDy=0;fontSize=14;" edge="1" parent="1" source="ZgApeL-rhUTh3z4IGhjK-20" target="ZgApeL-rhUTh3z4IGhjK-18">
          <mxGeometry relative="1" as="geometry">
            <Array as="points">
              <mxPoint x="890" y="510" />
              <mxPoint x="890" y="450" />
              <mxPoint x="960" y="450" />
            </Array>
          </mxGeometry>
        </mxCell>
        <mxCell id="ZgApeL-rhUTh3z4IGhjK-22" value="获取更新数据&lt;br&gt;主键范围" style="edgeLabel;html=1;align=center;verticalAlign=middle;resizable=0;points=[];fontSize=14;" vertex="1" connectable="0" parent="ZgApeL-rhUTh3z4IGhjK-21">
          <mxGeometry x="0.2941" y="-1" relative="1" as="geometry">
            <mxPoint x="-10" y="-1" as="offset" />
          </mxGeometry>
        </mxCell>
        <mxCell id="ZgApeL-rhUTh3z4IGhjK-20" value="yz-58" style="rounded=0;whiteSpace=wrap;html=1;shadow=1;fontSize=14;" vertex="1" parent="1">
          <mxGeometry x="810" y="510" width="120" height="60" as="geometry" />
        </mxCell>
      </root>
    </mxGraphModel>
  </diagram>
</mxfile>
